<svg width="15" height="14" viewBox="0 0 15 14" fill="none" xmlns="http://www.w3.org/2000/svg">
<path d="M14.5853 2.40348L10.0852 0.233687C9.98105 0.183405 9.86614 0.157227 9.74963 0.157227C9.63311 0.157227 9.5182 0.183405 9.414 0.233687L5.25 2.24219L1.08525 0.233687C0.970878 0.178572 0.843793 0.152569 0.716067 0.158148C0.588341 0.163726 0.464215 0.200701 0.355477 0.26556C0.246739 0.330419 0.157 0.421009 0.0947843 0.528725C0.0325683 0.636442 -5.95123e-05 0.757709 8.14884e-08 0.881008V10.2834C8.14884e-08 10.5575 0.1605 10.8078 0.41475 10.9308L4.91475 13.1005C5.01895 13.1508 5.13386 13.177 5.25037 13.177C5.36689 13.177 5.4818 13.1508 5.586 13.1005L9.75 11.092L13.9147 13.0998C14.0288 13.1555 14.1558 13.1818 14.2835 13.1764C14.4112 13.1709 14.5352 13.1338 14.6437 13.0687C14.865 12.9364 15 12.7042 15 12.4532V3.0508C15 2.77668 14.8395 2.52643 14.5853 2.40348V2.40348ZM6 3.49777L9 2.05125V9.83645L6 11.283V3.49777ZM1.5 2.05125L4.5 3.49777V11.283L1.5 9.83645V2.05125ZM13.5 11.283L10.5 9.83645V2.05125L13.5 3.49777V11.283Z" fill="#7D7B84"/>
</svg>
