<svg width="26" height="25" viewBox="0 0 26 25" fill="none" xmlns="http://www.w3.org/2000/svg">
<path d="M15.2554 25H10.5818C10.289 25 10.0049 24.9026 9.77675 24.7239C9.54859 24.5452 9.39003 24.296 9.32736 24.0175L8.80479 21.6625C8.10767 21.3651 7.44666 20.9933 6.83391 20.5538L4.47527 21.285C4.19609 21.3717 3.89485 21.3628 3.62159 21.2598C3.34832 21.1568 3.11947 20.9659 2.97304 20.7188L0.63109 16.78C0.486188 16.5327 0.431796 16.2448 0.476812 15.9634C0.521827 15.6821 0.663585 15.424 0.878894 15.2313L2.70854 13.6063C2.62533 12.8701 2.62533 12.1274 2.70854 11.3912L0.878894 9.77C0.66328 9.57722 0.521329 9.31884 0.476307 9.03723C0.431284 8.75561 0.48586 8.46746 0.63109 8.22L2.9679 4.27875C3.11434 4.03164 3.34319 3.84074 3.61645 3.73773C3.88972 3.63473 4.19095 3.62583 4.47013 3.7125L6.82877 4.44375C7.14206 4.21875 7.46818 4.00875 7.80458 3.81875C8.12942 3.64125 8.46325 3.48 8.80479 3.33625L9.32864 0.98375C9.39101 0.705247 9.54927 0.45586 9.77719 0.276936C10.0051 0.0980123 10.289 0.000299957 10.5818 0H15.2554C15.5482 0.000299957 15.8321 0.0980123 16.06 0.276936C16.2879 0.45586 16.4462 0.705247 16.5086 0.98375L17.0375 3.3375C17.3971 3.4925 17.7489 3.66625 18.0891 3.86C18.4062 4.03875 18.7131 4.235 19.0084 4.44625L21.3683 3.715C21.6474 3.62865 21.9483 3.63771 22.2213 3.7407C22.4943 3.84369 22.7229 4.03441 22.8693 4.28125L25.2061 8.2225C25.504 8.73125 25.4013 9.375 24.9583 9.77125L23.1287 11.3962C23.2119 12.1324 23.2119 12.8751 23.1287 13.6112L24.9583 15.2362C25.4013 15.6337 25.504 16.2763 25.2061 16.785L22.8693 20.7262C22.7229 20.9734 22.494 21.1643 22.2207 21.2673C21.9475 21.3703 21.6462 21.3792 21.3671 21.2925L19.0084 20.5612C18.3962 21.0004 17.7355 21.3719 17.0388 21.6687L16.5086 24.0175C16.4459 24.2958 16.2876 24.5449 16.0597 24.7236C15.8318 24.9022 15.548 24.9998 15.2554 25ZM12.9135 7.5C11.5514 7.5 10.245 8.02678 9.28187 8.96447C8.31871 9.90215 7.77762 11.1739 7.77762 12.5C7.77762 13.8261 8.31871 15.0979 9.28187 16.0355C10.245 16.9732 11.5514 17.5 12.9135 17.5C14.2756 17.5 15.5819 16.9732 16.5451 16.0355C17.5082 15.0979 18.0493 13.8261 18.0493 12.5C18.0493 11.1739 17.5082 9.90215 16.5451 8.96447C15.5819 8.02678 14.2756 7.5 12.9135 7.5Z" fill="#7D7B84"/>
</svg>
