<svg width="15" height="14" viewBox="0 0 15 14" fill="none" xmlns="http://www.w3.org/2000/svg">
<path d="M14.8558 11.1231H4.32692C4.2476 11.1231 4.18269 11.1868 4.18269 11.2646V12.2553C4.18269 12.3331 4.2476 12.3968 4.32692 12.3968H14.8558C14.9351 12.3968 15 12.3331 15 12.2553V11.2646C15 11.1868 14.9351 11.1231 14.8558 11.1231ZM14.8558 1.07519H4.32692C4.2476 1.07519 4.18269 1.13888 4.18269 1.21671V2.20736C4.18269 2.28519 4.2476 2.34888 4.32692 2.34888H14.8558C14.9351 2.34888 15 2.28519 15 2.20736V1.21671C15 1.13888 14.9351 1.07519 14.8558 1.07519ZM14.8558 6.09916H4.32692C4.2476 6.09916 4.18269 6.16284 4.18269 6.24068V7.23132C4.18269 7.30915 4.2476 7.37284 4.32692 7.37284H14.8558C14.9351 7.37284 15 7.30915 15 7.23132V6.24068C15 6.16284 14.9351 6.09916 14.8558 6.09916ZM2.16346 10.274H0.0721154C0.0324519 10.274 0 10.3058 0 10.3448V10.9462C0 10.9851 0.0324519 11.017 0.0721154 11.017H1.3774V11.3796H0.733774C0.694111 11.3796 0.661659 11.4115 0.661659 11.4504V12.0518C0.661659 12.0908 0.694111 12.1226 0.733774 12.1226H1.3774V12.5029H0.0721154C0.0324519 12.5029 0 12.5348 0 12.5737V13.1752C0 13.2141 0.0324519 13.2459 0.0721154 13.2459H2.16346C2.20313 13.2459 2.23558 13.2141 2.23558 13.1752V10.3448C2.23558 10.3058 2.20313 10.274 2.16346 10.274ZM0.0721154 1.00443H0.757212V3.12724C0.757212 3.16615 0.789663 3.198 0.829327 3.198H1.55048C1.59014 3.198 1.6226 3.16615 1.6226 3.12724V0.367594C1.6226 0.289758 1.55769 0.226074 1.47837 0.226074H0.0721154C0.0324519 0.226074 0 0.257916 0 0.296834V0.933675C0 0.972593 0.0324519 1.00443 0.0721154 1.00443ZM2.16346 5.25004H0.0721154C0.0324519 5.25004 0 5.28188 0 5.3208V5.95764C0 5.99656 0.0324519 6.0284 0.0721154 6.0284H1.30529L0.0378605 7.40291C0.0139555 7.42926 0.000515912 7.46317 0 7.49844V8.1512C0 8.19012 0.0324519 8.22196 0.0721154 8.22196H2.16346C2.20313 8.22196 2.23558 8.19012 2.23558 8.1512V7.51436C2.23558 7.47544 2.20313 7.4436 2.16346 7.4436H0.930289L2.19772 6.06908C2.22162 6.04274 2.23506 6.00883 2.23558 5.97356V5.3208C2.23558 5.28188 2.20313 5.25004 2.16346 5.25004Z" fill="grey"/>
</svg>
