<svg width="25" height="25" viewBox="0 0 25 25" fill="none" xmlns="http://www.w3.org/2000/svg">
<path fill-rule="evenodd" clip-rule="evenodd" d="M2.82856 2.74842C1.93641 3.63187 1.2272 4.68372 0.741765 5.84338C0.256327 7.00305 0.0042521 8.24764 5.33326e-05 9.50548C-0.00414543 10.7633 0.239615 12.0096 0.7173 13.1725C1.19498 14.3354 1.89716 15.392 2.78339 16.2814C3.66962 17.1709 4.7224 17.8756 5.88112 18.355C7.03984 18.8344 8.28161 19.079 9.53492 19.0748C10.7882 19.0706 12.0283 18.8176 13.1838 18.3304C14.3393 17.8432 15.3874 17.1315 16.2676 16.2361C18.0301 14.4434 19.0145 12.0239 19.0061 9.50548C18.9977 6.98708 17.9972 4.57424 16.2228 2.79345C14.4484 1.01266 12.0442 0.00849057 9.53492 5.35952e-05C7.02559 -0.00838338 4.61479 0.979599 2.82856 2.74842ZM13.8245 13.7841C12.6903 14.9224 11.1521 15.5618 9.54811 15.5618C7.94415 15.5618 6.40589 14.9224 5.27172 13.7841C4.13755 12.6458 3.50038 11.102 3.50038 9.49225C3.50038 7.8825 4.13755 6.33867 5.27172 5.2004C6.40589 4.06214 7.94415 3.42266 9.54811 3.42266C11.1521 3.42266 12.6903 4.06214 13.8245 5.2004C14.9587 6.33867 15.5958 7.8825 15.5958 9.49225C15.5958 11.102 14.9587 12.6458 13.8245 13.7841Z" fill="#72707C"/>
<path d="M14.4351 18.0761C14.1944 17.8345 14.0034 17.5476 13.8731 17.232C13.7428 16.9163 13.6758 16.5779 13.6758 16.2362C13.6758 15.8945 13.7428 15.5562 13.8731 15.2405C14.0034 14.9248 14.1944 14.638 14.4351 14.3964C14.6759 14.1548 14.9617 13.9631 15.2762 13.8323C15.5908 13.7016 15.9279 13.6343 16.2684 13.6343C16.6088 13.6343 16.946 13.7016 17.2605 13.8323C17.575 13.9631 17.8608 14.1548 18.1016 14.3964L24.2095 20.5281C24.457 20.768 24.6545 21.055 24.7903 21.3724C24.9261 21.6897 24.9976 22.0311 25.0006 22.3764C25.0036 22.7218 24.938 23.0643 24.8077 23.384C24.6774 23.7037 24.485 23.9941 24.2416 24.2383C23.9983 24.4825 23.7089 24.6757 23.3904 24.8064C23.0719 24.9372 22.7306 25.003 22.3864 25C22.0423 24.997 21.7022 24.9253 21.386 24.789C21.0698 24.6526 20.7838 24.4545 20.5447 24.2061L14.4351 18.0761Z" fill="#72707C"/>
</svg>
